<mxfile host="app.diagrams.net" modified="2023-05-26T12:43:12.259Z" agent="Mozilla/5.0 (Windows NT 10.0; Win64; x64) AppleWebKit/537.36 (KHTML, like Gecko) Chrome/113.0.0.0 Safari/537.36" etag="YpTpRZ7TkYaFF1z2IOcx" version="21.3.4">
  <diagram name="Page-1" id="tjMLy3e9W4_cnaeNJdZX">
    <mxGraphModel dx="2216" dy="724" grid="1" gridSize="10" guides="1" tooltips="1" connect="1" arrows="1" fold="1" page="1" pageScale="1" pageWidth="850" pageHeight="1100" math="0" shadow="0">
      <root>
        <mxCell id="0" />
        <mxCell id="1" parent="0" />
        <mxCell id="d11FBygV71W9qW5zlj42-34" style="edgeStyle=orthogonalEdgeStyle;rounded=0;orthogonalLoop=1;jettySize=auto;html=1;exitX=0.25;exitY=0;exitDx=0;exitDy=0;" edge="1" parent="1" source="d11FBygV71W9qW5zlj42-1">
          <mxGeometry relative="1" as="geometry">
            <mxPoint x="700" y="140" as="targetPoint" />
            <Array as="points">
              <mxPoint x="220" y="130" />
              <mxPoint x="480" y="130" />
            </Array>
          </mxGeometry>
        </mxCell>
        <mxCell id="d11FBygV71W9qW5zlj42-1" value="" style="rounded=0;whiteSpace=wrap;html=1;" vertex="1" parent="1">
          <mxGeometry x="190" y="200" width="120" height="240" as="geometry" />
        </mxCell>
        <mxCell id="d11FBygV71W9qW5zlj42-38" style="edgeStyle=orthogonalEdgeStyle;rounded=0;orthogonalLoop=1;jettySize=auto;html=1;exitX=1;exitY=0.5;exitDx=0;exitDy=0;entryX=0;entryY=0.5;entryDx=0;entryDy=0;" edge="1" parent="1" source="d11FBygV71W9qW5zlj42-2" target="d11FBygV71W9qW5zlj42-39">
          <mxGeometry relative="1" as="geometry">
            <mxPoint x="680" y="320.33333333333337" as="targetPoint" />
          </mxGeometry>
        </mxCell>
        <mxCell id="d11FBygV71W9qW5zlj42-2" value="" style="rounded=0;whiteSpace=wrap;html=1;" vertex="1" parent="1">
          <mxGeometry x="510" y="200" width="120" height="240" as="geometry" />
        </mxCell>
        <mxCell id="d11FBygV71W9qW5zlj42-8" value="" style="endArrow=classic;html=1;rounded=0;entryX=0;entryY=0.25;entryDx=0;entryDy=0;" edge="1" parent="1" target="d11FBygV71W9qW5zlj42-1">
          <mxGeometry width="50" height="50" relative="1" as="geometry">
            <mxPoint x="20" y="260" as="sourcePoint" />
            <mxPoint x="90" y="260" as="targetPoint" />
          </mxGeometry>
        </mxCell>
        <mxCell id="d11FBygV71W9qW5zlj42-9" value="" style="endArrow=classic;html=1;rounded=0;entryX=-0.008;entryY=0.34;entryDx=0;entryDy=0;entryPerimeter=0;" edge="1" parent="1" target="d11FBygV71W9qW5zlj42-1">
          <mxGeometry width="50" height="50" relative="1" as="geometry">
            <mxPoint x="20" y="280" as="sourcePoint" />
            <mxPoint x="70" y="250" as="targetPoint" />
            <Array as="points" />
          </mxGeometry>
        </mxCell>
        <mxCell id="d11FBygV71W9qW5zlj42-11" value="" style="endArrow=classic;html=1;rounded=0;entryX=-0.008;entryY=0.34;entryDx=0;entryDy=0;entryPerimeter=0;" edge="1" parent="1">
          <mxGeometry width="50" height="50" relative="1" as="geometry">
            <mxPoint x="21" y="310" as="sourcePoint" />
            <mxPoint x="190" y="312" as="targetPoint" />
            <Array as="points" />
          </mxGeometry>
        </mxCell>
        <mxCell id="d11FBygV71W9qW5zlj42-13" value="" style="endArrow=classic;html=1;rounded=0;entryX=-0.017;entryY=0.129;entryDx=0;entryDy=0;entryPerimeter=0;" edge="1" parent="1" target="d11FBygV71W9qW5zlj42-2">
          <mxGeometry width="50" height="50" relative="1" as="geometry">
            <mxPoint x="21" y="330" as="sourcePoint" />
            <mxPoint x="440" y="480" as="targetPoint" />
            <Array as="points">
              <mxPoint x="110" y="330" />
              <mxPoint x="110" y="480" />
              <mxPoint x="360" y="480" />
              <mxPoint x="360" y="230" />
            </Array>
          </mxGeometry>
        </mxCell>
        <mxCell id="d11FBygV71W9qW5zlj42-14" value="" style="endArrow=classic;html=1;rounded=0;entryX=-0.008;entryY=0.34;entryDx=0;entryDy=0;entryPerimeter=0;" edge="1" parent="1">
          <mxGeometry width="50" height="50" relative="1" as="geometry">
            <mxPoint x="21" y="240" as="sourcePoint" />
            <mxPoint x="190" y="242" as="targetPoint" />
            <Array as="points" />
          </mxGeometry>
        </mxCell>
        <mxCell id="d11FBygV71W9qW5zlj42-15" value="" style="endArrow=classic;html=1;rounded=0;entryX=-0.006;entryY=0.21;entryDx=0;entryDy=0;entryPerimeter=0;" edge="1" parent="1" target="d11FBygV71W9qW5zlj42-2">
          <mxGeometry width="50" height="50" relative="1" as="geometry">
            <mxPoint x="20" y="350" as="sourcePoint" />
            <mxPoint x="380" y="250" as="targetPoint" />
            <Array as="points">
              <mxPoint x="99" y="350" />
              <mxPoint x="99" y="510" />
              <mxPoint x="380" y="510" />
              <mxPoint x="380" y="250" />
            </Array>
          </mxGeometry>
        </mxCell>
        <mxCell id="d11FBygV71W9qW5zlj42-16" value="" style="endArrow=classic;html=1;rounded=0;entryX=-0.008;entryY=0.34;entryDx=0;entryDy=0;entryPerimeter=0;" edge="1" parent="1">
          <mxGeometry width="50" height="50" relative="1" as="geometry">
            <mxPoint x="21" y="220" as="sourcePoint" />
            <mxPoint x="190" y="222" as="targetPoint" />
            <Array as="points" />
          </mxGeometry>
        </mxCell>
        <mxCell id="d11FBygV71W9qW5zlj42-19" value="START" style="text;html=1;strokeColor=none;fillColor=none;align=center;verticalAlign=middle;whiteSpace=wrap;rounded=0;" vertex="1" parent="1">
          <mxGeometry x="-40" y="200" width="60" height="30" as="geometry" />
        </mxCell>
        <mxCell id="d11FBygV71W9qW5zlj42-22" value="AD_CIF" style="text;html=1;strokeColor=none;fillColor=none;align=center;verticalAlign=middle;whiteSpace=wrap;rounded=0;" vertex="1" parent="1">
          <mxGeometry x="-40" y="220" width="60" height="30" as="geometry" />
        </mxCell>
        <mxCell id="d11FBygV71W9qW5zlj42-23" value="CLK" style="text;html=1;strokeColor=none;fillColor=none;align=center;verticalAlign=middle;whiteSpace=wrap;rounded=0;" vertex="1" parent="1">
          <mxGeometry x="-30" y="240" width="60" height="30" as="geometry" />
        </mxCell>
        <mxCell id="d11FBygV71W9qW5zlj42-24" value="RESET" style="text;html=1;strokeColor=none;fillColor=none;align=center;verticalAlign=middle;whiteSpace=wrap;rounded=0;" vertex="1" parent="1">
          <mxGeometry x="-40" y="260" width="60" height="30" as="geometry" />
        </mxCell>
        <mxCell id="d11FBygV71W9qW5zlj42-25" value="MASTER_RESET" style="text;html=1;strokeColor=none;fillColor=none;align=center;verticalAlign=middle;whiteSpace=wrap;rounded=0;" vertex="1" parent="1">
          <mxGeometry x="-60" y="290" width="60" height="30" as="geometry" />
        </mxCell>
        <mxCell id="d11FBygV71W9qW5zlj42-26" value="UP" style="text;html=1;strokeColor=none;fillColor=none;align=center;verticalAlign=middle;whiteSpace=wrap;rounded=0;" vertex="1" parent="1">
          <mxGeometry x="-50" y="310" width="60" height="30" as="geometry" />
        </mxCell>
        <mxCell id="d11FBygV71W9qW5zlj42-27" value="DOWN" style="text;html=1;strokeColor=none;fillColor=none;align=center;verticalAlign=middle;whiteSpace=wrap;rounded=0;" vertex="1" parent="1">
          <mxGeometry x="-50" y="330" width="60" height="30" as="geometry" />
        </mxCell>
        <mxCell id="d11FBygV71W9qW5zlj42-30" value="UNITATEA DE&amp;nbsp;&lt;br&gt;CONTROL" style="text;html=1;strokeColor=none;fillColor=none;align=center;verticalAlign=middle;whiteSpace=wrap;rounded=0;" vertex="1" parent="1">
          <mxGeometry x="205" y="290" width="90" height="30" as="geometry" />
        </mxCell>
        <mxCell id="d11FBygV71W9qW5zlj42-31" value="UNITATEA DE&lt;br&gt;EXECUÈšIE" style="text;html=1;strokeColor=none;fillColor=none;align=center;verticalAlign=middle;whiteSpace=wrap;rounded=0;" vertex="1" parent="1">
          <mxGeometry x="530" y="290" width="80" height="30" as="geometry" />
        </mxCell>
        <mxCell id="d11FBygV71W9qW5zlj42-32" value="" style="endArrow=classic;html=1;rounded=0;" edge="1" parent="1">
          <mxGeometry width="50" height="50" relative="1" as="geometry">
            <mxPoint x="140" y="260" as="sourcePoint" />
            <mxPoint x="510" y="210" as="targetPoint" />
            <Array as="points">
              <mxPoint x="140" y="460" />
              <mxPoint x="330" y="460" />
              <mxPoint x="330" y="210" />
            </Array>
          </mxGeometry>
        </mxCell>
        <mxCell id="d11FBygV71W9qW5zlj42-37" value="" style="endArrow=classic;html=1;rounded=0;" edge="1" parent="1">
          <mxGeometry width="50" height="50" relative="1" as="geometry">
            <mxPoint x="245" y="200" as="sourcePoint" />
            <mxPoint x="700" y="160" as="targetPoint" />
            <Array as="points">
              <mxPoint x="245" y="160" />
              <mxPoint x="360" y="160" />
            </Array>
          </mxGeometry>
        </mxCell>
        <mxCell id="d11FBygV71W9qW5zlj42-39" value="SSD" style="text;html=1;strokeColor=none;fillColor=none;align=center;verticalAlign=middle;whiteSpace=wrap;rounded=0;" vertex="1" parent="1">
          <mxGeometry x="710" y="305" width="60" height="30" as="geometry" />
        </mxCell>
        <mxCell id="d11FBygV71W9qW5zlj42-40" value="LIBER_OCUPAT" style="text;html=1;strokeColor=none;fillColor=none;align=center;verticalAlign=middle;whiteSpace=wrap;rounded=0;" vertex="1" parent="1">
          <mxGeometry x="720" y="120" width="60" height="30" as="geometry" />
        </mxCell>
        <mxCell id="d11FBygV71W9qW5zlj42-41" value="INTR_CIF" style="text;html=1;strokeColor=none;fillColor=none;align=center;verticalAlign=middle;whiteSpace=wrap;rounded=0;" vertex="1" parent="1">
          <mxGeometry x="720" y="150" width="60" height="30" as="geometry" />
        </mxCell>
        <mxCell id="d11FBygV71W9qW5zlj42-44" value="" style="endArrow=none;html=1;rounded=0;" edge="1" parent="1">
          <mxGeometry width="50" height="50" relative="1" as="geometry">
            <mxPoint x="50" y="70" as="sourcePoint" />
            <mxPoint x="50" y="70" as="targetPoint" />
            <Array as="points">
              <mxPoint x="670" y="70" />
              <mxPoint x="670" y="530" />
              <mxPoint x="50" y="530" />
            </Array>
          </mxGeometry>
        </mxCell>
      </root>
    </mxGraphModel>
  </diagram>
</mxfile>
